<svg width="169" height="25" viewBox="0 0 169 25" fill="none" xmlns="http://www.w3.org/2000/svg">
<path d="M1 8.66667V16.3333M5 4.83333V22.0833M9 10.5833V14.4167M13 6.75V19.8102M17 1V24" stroke="#1150CE" stroke-width="2" stroke-linecap="round" stroke-linejoin="round"/>
<path d="M153.868 23V4.81818H161.379C162.74 4.81818 163.915 5.0638 164.903 5.55504C165.898 6.04036 166.664 6.73875 167.203 7.65021C167.741 8.55575 168.011 9.62997 168.011 10.8729C168.011 12.1335 167.735 13.2048 167.185 14.0866C166.635 14.9626 165.853 15.6314 164.841 16.093C163.829 16.5488 162.631 16.7766 161.246 16.7766H156.496V13.3143H160.429C161.092 13.3143 161.645 13.2285 162.089 13.0568C162.539 12.8793 162.879 12.6129 163.11 12.2578C163.341 11.8968 163.456 11.4351 163.456 10.8729C163.456 10.3106 163.341 9.84599 163.11 9.47904C162.879 9.10617 162.539 8.828 162.089 8.64453C161.639 8.45513 161.086 8.36044 160.429 8.36044H158.263V23H153.868ZM164.104 14.6903L168.632 23H163.838L159.399 14.6903H164.104Z" fill="#1E1E1E"/>
<path d="M138.439 23V4.81818H151.116V8.38707H142.833V12.1158H150.468V15.6935H142.833V19.4311H151.116V23H138.439Z" fill="#1E1E1E"/>
<path d="M120.925 8.38707V4.81818H136.292V8.38707H130.779V23H126.447V8.38707H120.925Z" fill="#1E1E1E"/>
<path d="M114.843 10.2692C114.784 9.61814 114.521 9.11211 114.053 8.75107C113.592 8.38412 112.932 8.20065 112.074 8.20065C111.505 8.20065 111.032 8.27463 110.653 8.42259C110.274 8.57056 109.99 8.77475 109.801 9.03517C109.611 9.28966 109.514 9.58263 109.508 9.91407C109.496 10.1863 109.549 10.426 109.668 10.6332C109.792 10.8403 109.97 11.0238 110.2 11.1836C110.437 11.3375 110.721 11.4736 111.053 11.592C111.384 11.7104 111.757 11.8139 112.171 11.9027L113.734 12.2578C114.633 12.4531 115.426 12.7136 116.113 13.0391C116.805 13.3646 117.385 13.7523 117.853 14.2021C118.327 14.6519 118.685 15.1698 118.927 15.7557C119.17 16.3416 119.294 16.9986 119.3 17.7266C119.294 18.8748 119.004 19.8602 118.43 20.6829C117.856 21.5056 117.03 22.1359 115.953 22.5739C114.882 23.0118 113.589 23.2308 112.074 23.2308C110.553 23.2308 109.227 23.003 108.096 22.5472C106.966 22.0915 106.087 21.399 105.46 20.4698C104.832 19.5406 104.51 18.3658 104.492 16.9453H108.7C108.736 17.5313 108.892 18.0195 109.171 18.4102C109.449 18.8008 109.83 19.0967 110.316 19.2979C110.807 19.4992 111.375 19.5998 112.02 19.5998C112.612 19.5998 113.115 19.5199 113.53 19.3601C113.95 19.2003 114.272 18.9783 114.497 18.6943C114.722 18.4102 114.838 18.0846 114.843 17.7177C114.838 17.3744 114.731 17.0814 114.524 16.8388C114.317 16.5902 113.997 16.3771 113.565 16.1996C113.139 16.0161 112.594 15.8474 111.932 15.6935L110.032 15.2497C108.457 14.8886 107.217 14.3056 106.312 13.5007C105.406 12.6899 104.957 11.5949 104.962 10.2159C104.957 9.09139 105.258 8.10595 105.868 7.2596C106.478 6.41324 107.321 5.75332 108.398 5.27984C109.475 4.80635 110.703 4.56961 112.082 4.56961C113.491 4.56961 114.713 4.80931 115.749 5.28872C116.791 5.7622 117.599 6.42804 118.173 7.28623C118.747 8.14442 119.04 9.13874 119.052 10.2692H114.843Z" fill="#1E1E1E"/>
<path d="M84.2393 11.4055H79.8004C79.7412 10.9498 79.6199 10.5385 79.4364 10.1715C79.253 9.80458 79.0103 9.49089 78.7085 9.23048C78.4066 8.97006 78.0485 8.77179 77.6342 8.63566C77.2259 8.49362 76.7731 8.42259 76.2759 8.42259C75.3941 8.42259 74.6335 8.63862 73.9943 9.07068C73.361 9.50273 72.8728 10.1271 72.5295 10.9439C72.1921 11.7607 72.0234 12.7491 72.0234 13.9091C72.0234 15.1165 72.1951 16.1286 72.5384 16.9453C72.8876 17.7562 73.3758 18.3687 74.0032 18.783C74.6365 19.1914 75.3852 19.3956 76.2493 19.3956C76.7346 19.3956 77.1756 19.3335 77.5721 19.2092C77.9746 19.0849 78.3267 18.9044 78.6286 18.6676C78.9363 18.425 79.1879 18.132 79.3832 17.7887C79.5844 17.4395 79.7235 17.0459 79.8004 16.608L84.2393 16.6346C84.1624 17.4395 83.9286 18.2326 83.538 19.0139C83.1533 19.7951 82.6236 20.5083 81.9489 21.1534C81.2742 21.7926 80.4515 22.3016 79.4808 22.6804C78.5161 23.0592 77.4093 23.2486 76.1605 23.2486C74.5152 23.2486 73.0414 22.8876 71.7393 22.1655C70.4432 21.4375 69.4193 20.3781 68.6676 18.9872C67.916 17.5964 67.5401 15.9037 67.5401 13.9091C67.5401 11.9086 67.9219 10.213 68.6854 8.8221C69.4489 7.43123 70.4817 6.37477 71.7837 5.65271C73.0858 4.93064 74.5447 4.56961 76.1605 4.56961C77.2614 4.56961 78.2794 4.72349 79.2145 5.03126C80.1496 5.3331 80.9723 5.777 81.6825 6.36293C82.3928 6.94295 82.9698 7.65614 83.4137 8.5025C83.8576 9.34885 84.1328 10.3165 84.2393 11.4055Z" fill="#1E1E1E"/>
<path d="M64.9767 4.81818V23H60.5821V4.81818H64.9767Z" fill="#1E1E1E"/>
<path d="M24.3761 23V4.81818H28.7706V12.5064H29.0103L35.0206 4.81818H40.1964L33.7511 12.9325L40.3118 23H35.0561L30.5284 15.8533L28.7706 18.0728V23H24.3761Z" fill="#1E1E1E"/>
<path fill-rule="evenodd" clip-rule="evenodd" d="M84 23.1818H88.6715L89.8835 19.3643L90.9433 16.0263L91.6228 13.8862L91.6343 13.8898L92.9844 9.58097H93.1264L95.15 16.0263H95.1188L96.1786 19.3643H96.1981L97.3967 23.1818H102.12L95.9851 5H90.1346L84 23.1818Z" fill="#1E1E1E"/>
<path d="M58 14C58 18.9706 53.9706 23 49 23C44.0294 23 40 18.9706 40 14C40 9.02944 44.0294 5 49 5C53.9706 5 58 9.02944 58 14ZM43.5249 14C43.5249 17.0238 45.9762 19.4751 49 19.4751C52.0238 19.4751 54.4751 17.0238 54.4751 14C54.4751 10.9762 52.0238 8.52491 49 8.52491C45.9762 8.52491 43.5249 10.9762 43.5249 14Z" fill="#1E1E1E"/>
</svg>
